<svg width="26" height="26" viewBox="0 0 20 21" fill="none" xmlns="http://www.w3.org/2000/svg">
<path d="M14.5415 19.5583C13.5998 19.5583 12.6082 19.3333 11.5832 18.9C10.5832 18.475 9.57484 17.8917 8.5915 17.1833C7.6165 16.4667 6.67484 15.6667 5.78317 14.7917C4.89984 13.9 4.09984 12.9583 3.3915 11.9917C2.67484 10.9917 2.09984 9.99166 1.6915 9.025C1.25817 7.99166 1.0415 6.99166 1.0415 6.05C1.0415 5.4 1.15817 4.78333 1.38317 4.20833C1.6165 3.61666 1.9915 3.06666 2.49984 2.59166C3.1415 1.95833 3.87484 1.64166 4.65817 1.64166C4.98317 1.64166 5.3165 1.71666 5.59984 1.85C5.92484 2 6.19984 2.225 6.39984 2.525L8.33317 5.25C8.50817 5.49166 8.6415 5.725 8.73317 5.95833C8.8415 6.20833 8.89984 6.45833 8.89984 6.7C8.89984 7.01666 8.80817 7.325 8.63317 7.61666C8.50817 7.84166 8.3165 8.08333 8.07484 8.325L7.50817 8.91666C7.5165 8.94166 7.52484 8.95833 7.53317 8.975C7.63317 9.15 7.83317 9.45 8.2165 9.9C8.62484 10.3667 9.00817 10.7917 9.3915 11.1833C9.88317 11.6667 10.2915 12.05 10.6748 12.3667C11.1498 12.7667 11.4582 12.9667 11.6415 13.0583L11.6248 13.1L12.2332 12.5C12.4915 12.2417 12.7415 12.05 12.9832 11.925C13.4415 11.6417 14.0248 11.5917 14.6082 11.8333C14.8248 11.925 15.0582 12.05 15.3082 12.225L18.0748 14.1917C18.3832 14.4 18.6082 14.6667 18.7415 14.9833C18.8665 15.3 18.9248 15.5917 18.9248 15.8833C18.9248 16.2833 18.8332 16.6833 18.6582 17.0583C18.4832 17.4333 18.2665 17.7583 17.9915 18.0583C17.5165 18.5833 16.9998 18.9583 16.3998 19.2C15.8248 19.4333 15.1998 19.5583 14.5415 19.5583ZM4.65817 2.89166C4.19984 2.89166 3.77484 3.09166 3.3665 3.49166C2.98317 3.85 2.7165 4.24166 2.54984 4.66666C2.37484 5.1 2.2915 5.55833 2.2915 6.05C2.2915 6.825 2.47484 7.66667 2.8415 8.53333C3.2165 9.41667 3.7415 10.3333 4.40817 11.25C5.07484 12.1667 5.83317 13.0583 6.6665 13.9C7.49984 14.725 8.39984 15.4917 9.32484 16.1667C10.2248 16.825 11.1498 17.3583 12.0665 17.7417C13.4915 18.35 14.8248 18.4917 15.9248 18.0333C16.3498 17.8583 16.7248 17.5917 17.0665 17.2083C17.2582 17 17.4082 16.775 17.5332 16.5083C17.6332 16.3 17.6832 16.0833 17.6832 15.8667C17.6832 15.7333 17.6582 15.6 17.5915 15.45C17.5665 15.4 17.5165 15.3083 17.3582 15.2L14.5915 13.2333C14.4248 13.1167 14.2748 13.0333 14.1332 12.975C13.9498 12.9 13.8748 12.825 13.5915 13C13.4248 13.0833 13.2748 13.2083 13.1082 13.375L12.4748 14C12.1498 14.3167 11.6498 14.3917 11.2665 14.25L11.0415 14.15C10.6998 13.9667 10.2998 13.6833 9.85817 13.3083C9.45817 12.9667 9.02484 12.5667 8.49984 12.05C8.0915 11.6333 7.68317 11.1917 7.25817 10.7C6.8665 10.2417 6.58317 9.85 6.40817 9.525L6.30817 9.275C6.25817 9.08333 6.2415 8.975 6.2415 8.85833C6.2415 8.55833 6.34984 8.29166 6.55817 8.08333L7.18317 7.43333C7.34984 7.26666 7.47484 7.10833 7.55817 6.96666C7.62484 6.85833 7.64984 6.76666 7.64984 6.68333C7.64984 6.61666 7.62484 6.51666 7.58317 6.41666C7.52484 6.28333 7.43317 6.13333 7.3165 5.975L5.38317 3.24166C5.29984 3.125 5.19984 3.04166 5.07484 2.98333C4.9415 2.925 4.79984 2.89166 4.65817 2.89166ZM11.6248 13.1083L11.4915 13.675L11.7165 13.0917C11.6748 13.0833 11.6415 13.0917 11.6248 13.1083Z" fill="white"/>
<path d="M15.4167 8.725C15.075 8.725 14.7917 8.44167 14.7917 8.1C14.7917 7.8 14.4917 7.175 13.9917 6.64167C13.5 6.11667 12.9583 5.80833 12.5 5.80833C12.1583 5.80833 11.875 5.525 11.875 5.18333C11.875 4.84167 12.1583 4.55833 12.5 4.55833C13.3083 4.55833 14.1583 4.99167 14.9 5.78333C15.5917 6.525 16.0417 7.43333 16.0417 8.1C16.0417 8.44167 15.7583 8.725 15.4167 8.725Z" fill="white"/>
<path d="M18.3333 8.725C17.9917 8.725 17.7083 8.44166 17.7083 8.1C17.7083 5.225 15.375 2.89166 12.5 2.89166C12.1583 2.89166 11.875 2.60833 11.875 2.26666C11.875 1.925 12.1583 1.64166 12.5 1.64166C16.0583 1.64166 18.9583 4.54166 18.9583 8.1C18.9583 8.44166 18.675 8.725 18.3333 8.725Z" fill="white"/>
</svg>
