<svg width="20" height="18" fill="none" xmlns="http://www.w3.org/2000/svg"><path d="M1.139 3.875C.833 5.012.833 6.58.833 9c0 3.437 0 5.156.876 6.36.282.39.625.732 1.014 1.015 1.204.875 2.923.875 6.36.875h1.834c3.437 0 5.156 0 6.36-.875.39-.283.732-.625 1.014-1.014.876-1.205.876-2.924.876-6.361 0-2.428 0-3.998-.309-5.136l-1.927 1.928c-1.497 1.496-2.67 2.668-3.707 3.46-1.063.81-2.064 1.287-3.224 1.287-1.16 0-2.162-.476-3.224-1.287-1.038-.792-2.21-1.964-3.707-3.46L1.277 3.999l-.138-.124Z" fill="#fff"/><path d="m1.75 2.583.1.083.373.335 1.781 1.781C5.546 6.324 6.654 7.43 7.61 8.16c.94.717 1.651 1.005 2.39 1.005.738 0 1.45-.288 2.39-1.005.956-.73 2.064-1.835 3.605-3.377l2.116-2.116.115-.114a3.923 3.923 0 0 0-.949-.927C16.073.75 14.354.75 10.917.75H9.083c-3.437 0-5.156 0-6.36.875-.39.283-.69.57-.973.958Z" fill="#fff"/></svg>