<svg width="26" height="26" viewBox="0 0 20 21" fill="none" xmlns="http://www.w3.org/2000/svg"><path d="M14.541 19.558c-.941 0-1.933-.225-2.958-.658-1-.425-2.008-1.008-2.992-1.717a26.004 26.004 0 0 1-2.808-2.391 24.907 24.907 0 0 1-2.392-2.8c-.716-1-1.291-2-1.7-2.967-.433-1.033-.65-2.033-.65-2.975 0-.65.117-1.267.342-1.842A4.45 4.45 0 0 1 2.5 2.592c.642-.634 1.375-.95 2.158-.95.325 0 .658.075.942.208.325.15.6.375.8.675L8.333 5.25c.175.242.309.475.4.708.108.25.167.5.167.742 0 .317-.092.625-.267.917a3.334 3.334 0 0 1-.558.708l-.567.592c.008.025.017.041.025.058.1.175.3.475.683.925.409.467.792.892 1.176 1.283.491.484.9.867 1.283 1.184.475.4.783.6.966.691l-.016.042.608-.6c.258-.258.508-.45.75-.575.458-.283 1.042-.333 1.625-.092.217.092.45.217.7.392l2.767 1.967c.308.208.533.475.666.791.125.317.184.609.184.9 0 .4-.092.8-.267 1.175-.175.375-.392.7-.667 1-.474.525-.991.9-1.591 1.142a4.92 4.92 0 0 1-1.858.358ZM4.659 2.892c-.458 0-.883.2-1.292.6-.383.358-.65.75-.816 1.175a3.646 3.646 0 0 0-.258 1.383c0 .775.183 1.617.55 2.483.374.884.9 1.8 1.566 2.717a23.056 23.056 0 0 0 2.258 2.65 23.465 23.465 0 0 0 2.659 2.267 13.58 13.58 0 0 0 2.742 1.575c1.425.608 2.758.75 3.858.291.425-.175.8-.441 1.142-.825a2.7 2.7 0 0 0 .466-.7c.1-.208.15-.425.15-.641a.994.994 0 0 0-.091-.417.63.63 0 0 0-.234-.25l-2.767-1.967a2.393 2.393 0 0 0-.458-.258c-.183-.075-.258-.15-.541.025a1.896 1.896 0 0 0-.484.375l-.633.625a1.188 1.188 0 0 1-1.208.25l-.226-.1c-.341-.183-.741-.467-1.183-.842-.4-.341-.833-.741-1.358-1.258a29.106 29.106 0 0 1-1.242-1.35c-.391-.458-.675-.85-.85-1.175l-.1-.25c-.05-.192-.066-.3-.066-.417 0-.3.108-.566.316-.775l.625-.65c.167-.166.292-.325.375-.466a.534.534 0 0 0 .092-.284.775.775 0 0 0-.067-.266 2.39 2.39 0 0 0-.267-.442L5.383 3.242a.768.768 0 0 0-.308-.259 1.044 1.044 0 0 0-.417-.091Zm6.967 10.216-.133.567.224-.583c-.041-.009-.074 0-.091.016Zm3.791-4.383a.63.63 0 0 1-.625-.625c0-.3-.3-.925-.8-1.458-.492-.525-1.034-.834-1.492-.834a.63.63 0 0 1-.625-.625.63.63 0 0 1 .625-.625c.808 0 1.658.434 2.4 1.225.692.742 1.142 1.65 1.142 2.317a.63.63 0 0 1-.625.625Zm2.916 0a.63.63 0 0 1-.625-.625A5.21 5.21 0 0 0 12.5 2.892a.63.63 0 0 1-.625-.625.63.63 0 0 1 .625-.625c3.558 0 6.458 2.9 6.458 6.458a.63.63 0 0 1-.625.625Z" fill="#fff"/></svg>